<svg xmlns="http://www.w3.org/2000/svg" width="1024" height="1024"><path fill="#0f171b" stroke="null" d="M-274.028-157.814h1653.501v1375.076H-274.028z"/><path fill="#2A1277" d="M519 232h1c-.01 1.268-.02 2.536-.032 3.842-1.768 64.221-1.768 64.221 29.332 118.472 5.266 5.223 10.716 10.257 16.179 15.272A134 134 0 0 1 569 373c2.736.624 2.736.624 6 1l3.828.504c3.556.433 7.116.817 10.677 1.195 14.03 1.49 27.873 3.535 41.495 7.301v1c-6.478-.389-12.832-1.1-19.242-2.093a231 231 0 0 0-28.65-2.616l-2.643-.08-2.325-.053c-2.15-.159-4.07-.572-6.14-1.158.197 3.55.64 6.7 2 10 2.792 2.125 5.82 2.832 9.187 3.688q2.754.828 5.5 1.675l2.747.82c6.132 1.954 11.84 4.906 17.566 7.817l2.275 1.152a912 912 0 0 1 7.1 3.66l2.257 1.168c5.25 2.782 5.25 2.782 6.368 5.02a123 123 0 0 1-11.57-4.355l-3.19-1.378-3.365-1.454A423 423 0 0 0 575 393l-3 8 2.098.266c3.595.91 6.182 2.542 9.34 4.484 22.79 13.528 50.866 14.716 76.261 8.438q2.154-.582 4.301-1.188l3.77-1.062c26.017-8.41 43.737-26.143 56.23-49.938 1.501-3.286 2.848-6.577 4-10h1l.351 3.15q.649 5.792 1.303 11.584l.562 5.01q.403 3.605.811 7.21l.25 2.257c.435 3.932.435 3.932 1.271 7.792.745 3.293.635 6.636.655 9.997l.021 2.376q.025 3.812.026 7.624l.003 2.616c-.01 12.719-.546 24.92-3.253 37.384q-.39 2.043-.773 4.086C723.917 484.64 708.172 511.91 690 538l-1.512 2.238c-1.112 1.623-2.292 3.2-3.488 4.762h-2l-.613 1.988c-1.94 4.211-4.713 7.573-7.574 11.2q-1.784 2.294-3.563 4.593L669.531 565c-2.372 3.099-4.6 6.285-6.804 9.504-1.716 2.48-3.485 4.919-5.26 7.357-8.34 11.501-15.86 23.324-21.994 36.15C634 621 634 621 632.465 623.512c-10.995 18.677-11.665 41.169-12.098 62.212l-.126 5.173c-.109 4.476-.208 8.953-.305 13.43-.102 4.592-.213 9.185-.323 13.778Q619.294 731.55 619 745l3.717-.029c9.298-.05 18.513.03 27.783.842l2.93.212c8.51.713 18.354 1.551 24.57 7.975 1.502 3.003 1.093 5.79 1.062 9.125l-.027 3.883L679 770l2.168-.48c11.63-2.133 26.22-2.797 36.496 3.652 8.192 6.41 15.558 14.235 17.336 24.828 1.626 21.435-1.844 39.648-15.438 56.875-10.317 11.98-25.258 23.846-41.437 25.688-2.245.334-2.245.334-4.125 1.437-1.452 2.598-2.228 5.137-3.063 7.992-3.605 11.568-12.122 20.273-22.625 25.883-12.477 5.821-26.006 7.274-39.632 7.293l-2.612.01q-2.72.007-5.44.007c-2.725.002-5.45.02-8.175.04-19.584.063-40.678-.75-55.766-14.975-6.032-6.464-9.882-14.346-13.687-22.25-10.137.533-20.04 1.965-30.051 3.584q-3.905.629-7.812 1.244-2.495.397-4.989.797l-2.348.373c-3.035.493-5.877 1.028-8.8 2.002-14.71.928-29.554-.97-44.188-2.25q-4.07-.349-8.14-.696A11674 11674 0 0 1 393 889l-5.931-.517c-15.043-1.311-30.082-2.67-45.12-4.03a81360 81360 0 0 0-30.637-2.766l-2.5-.225a16674 16674 0 0 0-86.107-7.528 11699 11699 0 0 0-57.164-4.763l-2.093-.17-4.094-.334c-4.467-.364-8.935-.718-13.403-1.07l-6.83-.554-3.046-.233c-15.077-1.246-15.077-1.246-19.95-5.06-2.762-3.574-4.94-6.807-5.375-11.375-1.031-3.266-2.964-3.613-5.856-5.134-7.482-4.903-9.248-14.133-11.012-22.308l-.945-4.558a2228 2228 0 0 0-1.028-4.734 1458 1458 0 0 1-2.006-9.371c-.937-4.45-1.92-8.89-2.915-13.327a1026 1026 0 0 1-4.65-22.318c-2.747-13.937-5.723-27.82-8.757-41.698q-2.15-9.85-4.288-19.704l-.43-1.982a4653 4653 0 0 1-7.8-36.679l-.553-2.647a6719 6719 0 0 1-5.147-24.903 1750 1750 0 0 0-8.613-39.706c-2.832-12.43-5.374-24.918-7.892-37.415-1.602-7.928-3.273-15.817-5.196-23.675-5.606-22.993-5.606-22.993-.475-31.904 2.99-3.895 6.107-6.743 10.813-8.312 1.941-.096 3.885-.13 5.828-.134l3.709-.014h4.095q2.168-.004 4.334-.01 5.97-.014 11.94-.017 6.432-.007 12.865-.022c10.361-.02 20.723-.03 31.084-.039l14.634-.015a80708 80708 0 0 1 61.261-.044l3.17-.002c16.946-.008 33.892-.033 50.839-.066q26.09-.049 52.18-.054c9.768-.002 19.535-.011 29.303-.036q12.477-.034 24.954-.02c4.244.004 8.488.002 12.732-.017q5.83-.026 11.66-.001a416 416 0 0 0 4.214-.014c9.156-.073 15.348.503 22.589 6.478l1.859 2.09 1.89 2.035c5.817 9.079 7.315 20.044 9.298 30.464q.455 2.34.913 4.68c.895 4.583 1.774 9.17 2.649 13.758l.724 3.79c1.847 9.675 1.847 9.675 2.505 13.135 1.47 7.674 3.108 15.302 4.8 22.93 1.625 7.395 3.088 14.813 4.506 22.25 3.93 20.478 8.04 40.92 12.133 61.365q1.666 8.321 3.328 16.642c4.591 22.979 9.197 45.953 14.004 68.888l.57 2.72 1.058 5.042q.91 4.338 1.815 8.677.446 2.126.896 4.25.676 3.202 1.34 6.405l.774 3.677c.48 2.83.661 5.37.547 8.229l2.686-.035c9.792-.071 19.484.369 29.252 1.035l4.42.29q5.321.347 10.642.71l-.04-2.016c-.133-6.927-.224-13.853-.29-20.78q-.044-3.878-.123-7.756a895 895 0 0 1-.133-11.147c-.03-1.156-.062-2.311-.094-3.501-.003-7.82-.003-7.82 1.958-10.634 16.03-13.833 53.544-8.438 73.722-8.166-1.906-16.341-3.81-32.32-9-48l-1.254-3.96c-12.293-38.363-33.48-73.138-56.492-105.97l-1.286-1.837a961 961 0 0 0-3.421-4.827C520 578 520 578 520 576h-2l-1.715-3.082c-1.742-3.05-3.63-5.96-5.633-8.848-17.683-25.593-29.286-52.562-28.69-83.963a439 439 0 0 0 .054-5.935c.268-9.621 1.932-18.758 3.921-28.172l.804-3.82c1.496-6.762 1.496-6.762 2.259-9.18l2-1c2.137.926 2.137.926 4.687 2.312 7.184 3.9 14.228 5.069 22.25 5.813l2.65.262q3.207.313 6.413.613v-3l-2.063-.008c-15.63-.623-29.505-7.127-40.203-18.414-1.793-1.631-3.338-2.481-5.547-3.453C470.918 412.36 463.86 405.206 460 397c-1.79-4.858-2.067-8.86-2-14-23.228 1.722-44.845 6.792-66.859 14.345C389 398 389 398 387 398v-2c22.026-10.975 46.356-16.674 71-16l2-9-2.114-.13c-6.946-.48-13.836-1.18-20.745-2.026l-2.668-.326q-5.48-.675-10.96-1.361C411.68 365.678 399.916 364.525 388 364v-2c25.171-.41 49.153 2.086 74 6l.855-2.313c2.357-5.533 6.957-9.499 11.145-13.687 10.862-10.909 16.87-23.382 21-38l.863-2.922c1.995-7.568 2.745-15.186 3.574-22.953 1.89-17.38 6.432-42.994 19.563-56.125"/><path fill="#EDDFC9" d="M519 232h1l-.032 3.842c-1.768 64.221-1.768 64.221 29.332 118.472 5.266 5.223 10.716 10.257 16.179 15.272A134 134 0 0 1 569 373c2.736.624 2.736.624 6 1l3.828.504c3.556.433 7.116.817 10.677 1.195 14.03 1.49 27.873 3.535 41.495 7.301v1c-6.478-.389-12.832-1.1-19.242-2.093a231 231 0 0 0-28.65-2.616l-2.643-.08-2.325-.053c-2.15-.159-4.07-.572-6.14-1.158.197 3.55.64 6.7 2 10 2.792 2.125 5.82 2.832 9.187 3.688q2.754.828 5.5 1.675c.907.27 1.813.54 2.747.82 6.132 1.954 11.84 4.906 17.566 7.817l2.275 1.152a912 912 0 0 1 7.1 3.66l2.257 1.168c5.25 2.782 5.25 2.782 6.368 5.02a123 123 0 0 1-11.57-4.355l-3.19-1.378-3.365-1.454A423 423 0 0 0 575 393l-3 8 2.098.266c3.595.91 6.182 2.542 9.34 4.484 22.79 13.528 50.866 14.716 76.261 8.438q2.154-.582 4.301-1.188l3.77-1.062c26.017-8.41 43.737-26.143 56.23-49.938 1.501-3.286 2.848-6.577 4-10h1l.351 3.15q.649 5.792 1.303 11.584l.562 5.01q.403 3.605.811 7.21l.25 2.257c.435 3.932.435 3.932 1.271 7.792.745 3.293.635 6.636.655 9.997l.021 2.376q.025 3.812.026 7.624l.003 2.616c-.01 12.719-.546 24.92-3.253 37.384q-.39 2.043-.773 4.086C723.917 484.64 708.172 511.91 690 538l-1.512 2.238c-1.112 1.623-2.292 3.2-3.488 4.762h-2l-.613 1.988c-1.94 4.211-4.713 7.573-7.574 11.2q-1.784 2.294-3.563 4.593L669.531 565c-2.372 3.099-4.6 6.285-6.804 9.504-1.716 2.48-3.485 4.919-5.26 7.357-8.34 11.501-15.86 23.324-21.994 36.15C634 621 634 621 632.465 623.512c-10.995 18.677-11.665 41.169-12.098 62.212l-.126 5.173c-.109 4.476-.208 8.953-.305 13.43-.102 4.592-.213 9.185-.323 13.778Q619.295 731.55 619 745h-26l-.7-5.93c-1.76-14.369-3.734-28.277-8.3-42.07l-1.254-3.96c-12.293-38.363-33.48-73.138-56.492-105.97l-1.286-1.837a961 961 0 0 0-3.421-4.827C520 578 520 578 520 576h-2l-1.715-3.082c-1.742-3.05-3.63-5.96-5.633-8.848-17.683-25.593-29.286-52.562-28.69-83.963a439 439 0 0 0 .054-5.935c.268-9.621 1.932-18.758 3.921-28.172l.804-3.82c1.496-6.762 1.496-6.762 2.259-9.18l2-1c2.137.926 2.137.926 4.687 2.313 7.184 3.898 14.228 5.068 22.25 5.812l2.65.262q3.207.313 6.413.613v-3l-2.063-.008c-15.63-.623-29.505-7.127-40.203-18.414-1.793-1.631-3.338-2.481-5.547-3.453C470.918 412.36 463.86 405.206 460 397c-1.79-4.858-2.067-8.86-2-14-23.228 1.722-44.845 6.792-66.859 14.345C389 398 389 398 387 398v-2c22.026-10.975 46.356-16.674 71-16l2-9-2.114-.13c-6.946-.48-13.836-1.18-20.745-2.026l-2.668-.326q-5.48-.674-10.96-1.361C411.68 365.678 399.916 364.525 388 364v-2c25.171-.41 49.153 2.086 74 6l.855-2.312c2.357-5.534 6.957-9.5 11.145-13.688 10.862-10.909 16.87-23.382 21-38l.863-2.922c1.995-7.568 2.745-15.186 3.574-22.953 1.89-17.38 6.432-42.994 19.563-56.125"/><path fill="#093A30" d="M932.093 297.657c5.57 3.923 6.192 15.337 7.391 21.636.441 2.63.867 5.258 1.266 7.894l.325 2.118c1.694 11.296 2.413 22.465 2.425 33.882l.013 2.11c.08 29.833-11.979 53.19-32.576 74.015C898.176 452 898.176 452 894 452c.03 1.294.062 2.588.094 3.922 0 4.623-.32 9.182-.75 13.781-2.179 23.996-2.61 47.846-2.532 71.922l.008 2.43q.053 14.972.18 29.945l.58-1.785c.884-2.72 1.777-5.436 2.67-8.152l.91-2.807c1.73-5.246 3.634-10.255 6.066-15.218 1.667-4.39 1.173-9.038.27-13.561-3.555-24.913 1.33-49.62 15.504-70.477 16.496-21.869 40.008-35.545 67-40 4.052-.313 7.954-.37 12 0 4.083 16.333-8.672 40.313-14 55.562l-1.184 3.456C976.468 493.288 970.718 504.28 962 514l-2.46 2.746c-9.099 9.618-19.412 15.946-31.29 21.629l-2.038.975c-2.928 1.346-5.566 2.532-8.754 3.113-4.132.79-6.644 1.396-9.153 4.915-1.52 3.219-2.752 6.45-3.93 9.81l-1.25 3.251a243 243 0 0 0-2.597 7.213c-1.111 3.24-2.348 6.412-3.627 9.59-6.286 16.258-6.876 30.976-6.401 48.258q.06 3.882.11 7.766c.086 6.246.219 12.49.39 18.734l1.61-3.29 2.14-4.335 1.055-2.16c1.655-3.341 3.306-6.375 5.443-9.448 1.826-2.884 2.214-4.086 2.037-7.42l-.087-2.58-.135-2.705C902.605 600.87 907.23 584.703 920 570c15.306-15.866 37.972-25.21 60-26l3.32-.121c9.748-.185 9.748-.185 14.68 2.121.577 7.863-1.284 13.348-4.437 20.5l-1.371 3.182C986.509 582.685 980.7 595.465 971 606l-2.336 2.578C954.364 623.645 933.584 632.81 913 635c-2 .028-4 .035-6 0l-.73 1.996c-1.924 4.552-4.349 8.824-6.729 13.15-2.318 4.295-4.33 8.635-6.19 13.149l-1.341 3.246L891 669l3.258-.007q15.165-.03 30.33-.045 7.796-.007 15.593-.023 7.518-.016 15.036-.02 2.876-.003 5.75-.01 4.012-.01 8.025-.009l2.426-.01c5.468.01 5.468.01 6.582 1.124 1.041 12.145 1.156 26.4-3 38l-1.99.908c-2.176.906-2.176.906-2.799 3.049l-.412 2.431-.497 2.772-.486 3.024-.547 3.133a1417 1417 0 0 0-1.706 10.12q-.597 3.473-1.199 6.945-1.175 6.796-2.33 13.596c-1.184 6.94-2.466 13.857-3.784 20.772a858 858 0 0 0-3.89 22.147q-.8 4.878-1.574 9.76c-3.561 22.028-3.561 22.028-7.786 25.343-7.2 2.974-7.2 2.974-11 2-1.362-1.77-2.406-3.65-3.512-5.59C919.593 809.146 897.873 799.824 877 794a2070 2070 0 0 1-4.117-1.191A1130 1130 0 0 0 863 790c.453-5.54.975-11.054 1.754-16.559 5.008-35.83 1.032-69.402-6.754-104.441h25c.041-6.262.057-12.514.012-18.774q-.012-3.183.019-6.366c.13-14.48-1.423-24.511-9.031-36.86q-1.192-2.691-2.371-5.387c-1.413-2.48-2.135-3.407-4.786-4.51-2.654-.528-5.204-.767-7.905-.915-17.073-1.34-17.073-1.34-22.938-5.188-2.466-4.229-3.307-8.605-4.25-13.375a561 561 0 0 0-1.404-5.925q-.48-1.99-.941-3.984c-1.406-6.002-3.341-11.711-5.53-17.466l-1.01-2.68a1742 1742 0 0 0-1.947-5.126c-1.44-3.831-2.768-7.7-4.105-11.569a243 243 0 0 0-6.93-17.652C809 511 809 511 809 509c17.377 1.337 33.265 10.338 45 23l1.574 1.488c10.692 10.836 16.317 27.648 16.571 42.573.153 7.718 1.566 13.497 4.906 20.49l1.145 2.48A558 558 0 0 0 881 605q.249-12.037.363-24.078c.036-3.73.084-7.46.165-11.19.395-18.684-.78-34.94-6.659-52.905-1.198-3.895-2.097-7.84-2.976-11.817-1.252-5.131-2.538-10.148-6.817-13.53-4.64-2.59-9.6-4.098-14.662-5.647-3.756-1.296-7.046-3.185-10.414-5.27l-1.84-1.136c-5.777-3.67-11.058-7.868-16.16-12.427l-1.879-1.629c-23.928-22.152-31.979-56.572-36.508-87.52-.49-3.755-.49-3.755-1.613-6.851-.094-1.852-.13-3.708-.125-5.562l-.008-2.942C782 360 782 360 783 358c5.676-.22 10.342.361 15.75 2.188l2.1.687c26.623 8.88 50.401 25.655 63.193 51.21 10.62 22.73 14.035 47.473 11.082 72.29-.719 8.815 2.146 16.409 5.195 24.551.765 2.334 1.24 4.66 1.68 7.074l.152-3.642q.289-6.87.591-13.736.132-3.056.258-6.11c.438-10.637.968-21.169 2.263-31.739 1.475-12.346-.615-19.404-7.264-29.773-10.527-20.895-11.712-48.71-4.54-70.754A324 324 0 0 1 875 356l.763-2.09C881.817 337.824 890.94 324.166 903 312l2.414-2.562c7.07-7.386 15.649-15.244 26.679-11.781"/><path fill="#2B127A" d="M595.611 744.74c4.127.01 8.253.004 12.38-.008 14.57-.034 29.127-.05 43.661 1.096l2.754.21c8.198.763 17.637 1.806 23.594 7.962 1.502 3.003 1.093 5.79 1.063 9.125l-.028 3.883L679 770l2.168-.48c11.63-2.133 26.22-2.797 36.496 3.652 8.192 6.41 15.558 14.235 17.336 24.828 1.626 21.435-1.843 39.648-15.437 56.875-10.318 11.98-25.26 23.846-41.438 25.688-2.245.334-2.245.334-4.125 1.437-1.452 2.598-2.228 5.137-3.062 7.992-3.606 11.568-12.123 20.273-22.625 25.883-12.478 5.821-26.007 7.274-39.633 7.293l-2.612.01q-2.72.007-5.44.007c-2.725.002-5.45.02-8.175.04-17.903.057-36.21-.657-51.453-11.225l-4-5h13l-1.479-4.172c-1.904-6.389-1.921-12.455-1.862-19.08v-3.906c-.002-3.504.016-7.007.037-10.51.019-3.673.02-7.346.024-11.02.01-6.94.034-13.881.064-20.823.034-7.908.05-15.816.065-23.724q.048-24.383.151-48.765l2.808.02q13.362.091 26.723.135 6.863.022 13.724.071c18.644.138 37.172.07 55.753-1.613l2.119-.19c7.727-.714 15.306-1.688 22.873-3.423q-5.532.212-11.062.437l-3.147.12-3.076.127-2.809.11c-2.968.17-2.968.17-6.124.709-3.778.496-7.389.638-11.197.658l-2.143.015q-3.497.021-6.993.027l-2.46.009q-6.487.022-12.975.028a1965 1965 0 0 0-10.508.041c-18.321.118-36.534-.057-54.799-1.61l-2.204-.176c-2.037-.169-4.071-.361-6.105-.555l-3.468-.328c-3.077-.643-4.618-1.53-6.93-3.612l1-5-2-1c23.182-6.22 47.798-5.327 71.611-5.26"/><path fill="#63636B" d="M858 669q23.248-.035 46.495-.052 10.794-.007 21.587-.023 9.405-.015 18.809-.02 4.983 0 9.965-.01 5.553-.01 11.107-.009l3.36-.01 3.04.004 2.655-.003C977 669 977 669 978 670c1.041 12.145 1.156 26.4-3 38l-1.99.908c-2.176.906-2.176.906-2.799 3.049l-.412 2.431-.497 2.772-.486 3.024c-.18 1.034-.36 2.068-.547 3.133-.585 3.371-1.146 6.745-1.706 10.12q-.597 3.473-1.199 6.945-1.175 6.796-2.33 13.596c-1.184 6.94-2.466 13.857-3.784 20.772a858 858 0 0 0-3.555 20.105l-.335 2.042q-.8 4.878-1.574 9.76c-3.561 22.028-3.561 22.028-7.786 25.343-7.2 2.974-7.2 2.974-11 2-1.362-1.77-2.406-3.65-3.512-5.59C919.593 809.146 897.873 799.824 877 794q-2.06-.594-4.117-1.191A1130 1130 0 0 0 863 790c.453-5.54.975-11.054 1.754-16.559 4.775-34.163 1.643-66.656-5.795-100.125l-.544-2.451z"/><path fill="#6828D7" d="m49.829 499.866 3.708-.014h4.095q2.168-.003 4.334-.01 5.97-.014 11.94-.017 6.432-.007 12.865-.022c10.361-.02 20.723-.03 31.084-.039l14.634-.015a80708 80708 0 0 1 61.261-.044l3.17-.002c16.946-.008 33.892-.033 50.839-.066q26.09-.049 52.18-.054c9.768-.002 19.535-.011 29.303-.036q12.477-.034 24.954-.02c4.244.004 8.488.002 12.732-.017q5.83-.026 11.66-.001 2.108.004 4.214-.014c9.156-.073 15.348.503 22.589 6.478l1.859 2.09 1.89 2.035c5.817 9.079 7.315 20.044 9.298 30.465q.455 2.34.913 4.678c.895 4.584 1.774 9.171 2.649 13.759l.724 3.79c1.847 9.675 1.847 9.675 2.505 13.135 1.47 7.674 3.108 15.302 4.8 22.93 1.625 7.395 3.088 14.813 4.506 22.25 3.93 20.478 8.04 40.92 12.133 61.365q1.666 8.321 3.328 16.642c4.591 22.979 9.197 45.953 14.004 68.888l1.628 7.762q.91 4.338 1.815 8.677.446 2.126.896 4.25.676 3.202 1.34 6.405l.774 3.677c.48 2.83.661 5.37.547 8.229l2.686-.035c9.792-.071 19.484.369 29.252 1.035l4.42.29q5.321.347 10.642.71l-.034-2.023c-.11-6.943-.186-13.885-.24-20.829q-.039-3.887-.103-7.775c-.06-3.723-.09-7.446-.111-11.17l-.078-3.517c-.003-8.015-.003-8.015 2.909-11.449C523 751 523 751 526 751l-.187 2.375L526 756c3.418 2.278 5.25 2.443 9.3 2.843l1.936.191c2.136.205 4.272.392 6.409.575l2.255.199c18.385 1.582 36.745 1.578 55.184 1.456 3.531-.02 7.062-.023 10.593-.026q6.386-.01 12.772-.035l2.405-.006q3.366-.01 6.73-.036l3.842-.02c3.589-.142 7.028-.588 10.574-1.141q2.964-.204 5.934-.316l3.212-.127 3.292-.12 3.373-.13q4.095-.159 8.189-.307l-1 2c-24.41 5.65-50.067 5.314-74.974 5.196-2.888-.011-5.776-.01-8.664-.01q-4.26-.001-8.52-.013-2.937-.007-5.874-.008c-8.696-.046-17.3-.497-25.968-1.165q.126 25.66.288 51.321.076 11.915.134 23.83.05 10.386.12 20.772.04 5.499.061 10.997c.016 4.094.046 8.188.078 12.282l.007 3.675.034 3.39.016 2.933c.296 3.163 1.243 5.801 2.262 8.8v4c-12 1.348-12 1.348-16.242-1.512-1.917-2.39-3.33-4.775-4.758-7.488l-1.863-3.293c-6.43-11.996-9.334-24.201-9.235-37.828l.005-2.257c.005-2.353.018-4.706.03-7.06q.008-2.409.014-4.818.017-5.873.049-11.744l-3.44.275q-6.315.505-12.63 1.007l-5.468.436q-3.929.315-7.857.626l-2.471.199c-3.054.24-6.07.457-9.134.457l.621 2.16c5.967 21.213 5.967 21.213 1.942 29.965C478 868 478 868 477 869c-2 .04-4 .043-6 0l-.367-2.16-.508-2.903-.492-2.847c-.601-3.154-.601-3.154-1.613-6.43-1.125-4.037-1.818-8.025-2.457-12.16-1.856-11.528-4.163-22.92-6.817-34.293a472 472 0 0 1-5.621-28.082c-1.514-8.906-3.248-17.742-5.128-26.577-1.77-8.351-3.396-16.726-4.997-25.11-1.896-9.919-3.91-19.8-6.105-29.657-1.926-8.73-3.603-17.505-5.277-26.285-1.82-9.529-3.747-19.025-5.882-28.488-1.466-6.549-2.717-13.13-3.94-19.727-1.347-7.269-2.761-14.524-4.171-21.781l-.46-2.37a1901 1901 0 0 0-6.387-31.57c-1.786-8.472-3.414-16.972-4.991-25.484-3.148-17.887-3.148-17.887-13.287-32.514-5.055-3.16-9.71-3.814-15.602-3.834l-2.103-.015c-2.321-.015-4.643-.015-6.964-.016l-5.035-.026c-4.596-.023-9.192-.034-13.788-.043-4.921-.012-9.843-.035-14.764-.057q-12.69-.055-25.38-.092c-13.241-.04-26.483-.093-39.725-.149l-13.383-.056-3.356-.014q-11.833-.048-23.667-.094c-40.154-.156-80.308-.399-120.462-.677l-24.729-.168A185621 185621 0 0 1 37 505c4.15-4.436 6.84-5.124 12.828-5.134"/><path fill="#16084E" d="M111 848c10.35-.344 20.565.593 30.866 1.48 5.476.472 10.954.926 16.43 1.383l3.444.289c10.775.9 21.555 1.728 32.336 2.545 38.68 2.932 77.352 5.994 115.975 9.61 16.426 1.531 32.87 2.757 49.324 3.94a2576 2576 0 0 1 53.877 4.446c14.966 1.387 29.896 2.481 44.935 2.557 1.599.03 1.599.03 3.229.063 5.734.028 9.575-.256 14.584-3.313 5.677-2.27 11.62-3.084 17.625-4.062l3.082-.526c7.039-1.164 14.15-2.247 21.293-2.412 1.99 1.99 1.983 5.532 2.5 8.25l.395 2.027q.555 2.86 1.105 5.723.498 2.5 1 5l-1.916.297q-9.855 1.529-19.709 3.066l-7.36 1.144q-5.283.82-10.566 1.645l-3.333.515-3.094.485-2.725.424c-2.446.397-2.446.397-5.297 1.424-14.71.928-29.554-.97-44.188-2.25q-4.07-.349-8.14-.696A11674 11674 0 0 1 393 889l-5.931-.517c-15.043-1.311-30.082-2.67-45.12-4.03a81360 81360 0 0 0-30.637-2.765l-2.5-.226a16674 16674 0 0 0-86.107-7.528 11699 11699 0 0 0-57.164-4.763l-6.187-.504c-4.467-.364-8.935-.718-13.403-1.07l-6.83-.554-3.046-.233c-15.077-1.246-15.077-1.246-19.95-5.06-3.547-4.59-5.311-7.94-5.125-13.75"/><path fill="#511CBB" d="m526 751-.187 2.375L526 756c3.418 2.278 5.25 2.443 9.3 2.843l1.936.191c2.136.205 4.272.392 6.409.575l2.255.199c18.385 1.582 36.745 1.578 55.184 1.456 3.531-.02 7.062-.023 10.593-.026q6.386-.01 12.772-.035l2.405-.006q3.366-.01 6.73-.036l3.842-.02c3.589-.142 7.028-.588 10.574-1.141q2.964-.204 5.934-.316l3.212-.127 3.292-.12 3.373-.13q4.094-.159 8.189-.307l-1 2c-24.41 5.65-50.067 5.314-74.974 5.196-2.888-.011-5.776-.01-8.664-.01q-4.26-.001-8.52-.013-2.937-.007-5.874-.008c-8.696-.046-17.3-.497-25.968-1.165q.126 25.66.288 51.321.076 11.915.134 23.83.05 10.386.12 20.772.04 5.499.061 10.997c.016 4.094.046 8.188.078 12.282l.007 3.675c.01 1.118.022 2.237.034 3.39l.016 2.933c.296 3.163 1.243 5.801 2.262 8.8v4c-12 1.348-12 1.348-16.242-1.512-1.917-2.39-3.33-4.775-4.758-7.488l-1.863-3.293c-6.43-11.996-9.334-24.201-9.235-37.828l.005-2.257c.005-2.353.018-4.706.03-7.06q.008-2.409.014-4.818.017-5.873.049-11.744l-3.44.275q-6.315.505-12.63 1.007l-5.468.436q-3.929.314-7.857.626l-2.471.199c-3.054.24-6.07.457-9.134.457-.845-3.372-1.674-6.748-2.5-10.125l-.723-2.883-.683-2.812-.635-2.571c-.512-2.912-.534-5.658-.459-8.609 10.346-.147 20.56.3 30.875 1l4.434.29q5.345.348 10.691.71l-.034-2.023c-.11-6.943-.186-13.885-.24-20.829q-.039-3.887-.103-7.775c-.06-3.723-.09-7.446-.111-11.17l-.078-3.517c-.003-8.015-.003-8.015 2.909-11.449C523 751 523 751 526 751"/><path fill="#3B3F46" d="M690 118.106c3.298 4.124 5.085 8.426 6.563 13.437l.637 2.116c5.497 18.734 7.115 38.024 7.8 57.447l.129 3.387A160.3 160.3 0 0 1 701 233.73l-.503 2.17c-1.232 4.94-1.232 4.94-3.497 7.205l-1.477-1.434c-9.632-8.984-20.882-15.508-32.523-21.566.493-4.309 1.673-6.07 4.875-8.938 3.393-3.048 5.242-5.9 7.125-10.062-7.72 2.229-15.11 4.745-22.441 8.047-2.559.953-2.559.953-6.559.953.483-4.84 2.856-8.03 5.688-11.813l1.364-1.87c2.89-3.946 5.837-7.847 8.89-11.669 1.19-1.855 1.64-3.495 2.058-5.648-11.913 4.736-21.917 12.24-32 20l-1-2a96 96 0 0 1 3.313-7.125l1.096-2.158c4.071-7.864 8.749-15.31 13.591-22.717.415-.638.83-1.277 1.259-1.934 18.424-28.227 18.424-28.227 27.741-38.066h2l1-3c5.257-4 5.257-4 9-4"/><path fill="#5E22CD" d="M248 644c11.486 8.587 18.2 18.917 21 33 1.234 12.175-.567 22.682-8.348 32.344-2.611 2.618-5.325 4.056-8.652 5.656l-2 1c-8.995 1.182-16.463-1.937-23.688-7.125-9.538-7.94-15.414-19.651-17.312-31.875-.765-10.271.163-20.833 7-29 9.413-9.323 20.328-10.852 32-4"/><path fill="#ECDEC8" d="M803.375 845.25c4.52 4.3 8.085 9.029 10.625 14.75v3c-9.696 2.795-19.278 4.908-29.254 6.383-2.076.307-4.15.626-6.225.947-13.273 2.035-26.242 2.9-39.646 3.232l-4.922.131q-5.977.159-11.953.307c-1.77-7.9.754-15.297 4.688-22.25 6.299-9.69 14.831-17.29 26.312-19.75 17.569-3.332 36.774 1.726 50.375 13.25"/><path fill="#2C127D" d="M684 769c28.668-.956 28.668-.956 40.375 9.75 10.87 11.824 11.312 23.117 10.8 38.47-1.145 18.208-10.7 34.143-23.862 46.405C702.1 871.255 690.319 880 678 880l7-22h2l1-3c1.785-1.324 1.785-1.324 4.063-2.687 10.841-6.964 18.508-16.338 21.562-28.88 1.796-8.77 3.246-17.722-1.418-25.78C709.539 794 706.092 791.776 702 790c-2.054-.314-2.054-.314-4.187-.25l-2.106-.016c-3.956.389-7.827 1.404-11.707 2.266z"/><path fill="#62626A" d="M871 670a3260 3260 0 0 1 15.698-.11q2.671-.015 5.343-.04c2.557-.025 5.113-.036 7.67-.045l2.421-.032c1.958 0 3.914.105 5.868.227 2 2 2 2 3 5h-2v2l2 1 2 2 1-1 3-2 1 2 2-2 3 3c-1.587 2.38-2.878 4.144-5 6h-2l-1 4-3.375-1c-3.32-1.089-3.32-1.089-5.625-1v-2h2v-4l-2 1-1-3-1 2-2 1-2-2-2 3h-3v2h-2v2l4-1v2h2l1-2h3v2l2 2c-.375 2.625-.375 2.625-1 5h-5l-2 1.5c-2 1.5-2 1.5-4 1.5l-1 5h-2l1 2h4l-1-3h2l1-2 4 5-2 2 72 1-2 8H867c-1.457-2.914-1.57-5.988-1.937-9.188-.508-4.343-1.024-8.676-1.708-12.996l-.605-3.941-.578-3.57c-.188-3.603.477-5.987 1.828-9.305l1.813.625c2.472.682 2.472.682 5.187-1.625v2l4-1-1-3h2c-1.448-1.448-3.04-1.557-5-2z"/><path fill="#6C29DC" d="m49.829 499.866 3.708-.014h4.095q2.168-.003 4.334-.01 5.97-.014 11.94-.017 6.432-.007 12.865-.022c10.361-.02 20.723-.03 31.084-.039l14.634-.015a80708 80708 0 0 1 61.261-.044l3.17-.002c16.946-.008 33.892-.033 50.839-.066q26.09-.049 52.18-.054c9.768-.002 19.535-.011 29.303-.036q12.477-.034 24.954-.02c4.244.004 8.488.002 12.732-.017q5.83-.026 11.66-.001 2.108.004 4.214-.014c9.162-.073 15.621.379 22.659 6.724l1.914 2.281 1.96 2.281c2.891 3.854 3.934 6.374 3.665 11.219a61 61 0 0 1-4.125-7.187l-1.07-2.168L407 511l-1 1-2 2v-2l-2 1c-.658 3.03-.658 3.03-1 6l-2.125-2.187c-6.929-6.87-12.053-10.05-21.977-10.085l-2.103-.015c-2.321-.015-4.643-.015-6.964-.016l-5.035-.026c-4.596-.023-9.192-.034-13.788-.043-4.921-.012-9.843-.035-14.764-.057q-12.69-.055-25.38-.092c-13.241-.04-26.483-.093-39.725-.149l-13.383-.056-3.356-.014q-11.834-.048-23.667-.094c-40.154-.156-80.308-.399-120.462-.677l-24.729-.168A185621 185621 0 0 1 37 505c4.15-4.436 6.84-5.124 12.829-5.134"/><path fill="#000809" d="M704.184 789.957c5.915 3.419 9.572 7.55 11.816 14.043 1.324 10.732-1.134 23.83-7 33-13.98 17.363-13.98 17.363-24 20h-6v-63c18.959-6.771 18.959-6.771 25.184-4.043"/><path fill="#DB963B" d="m611.375 288.172 2.164-.065c2.047-.013 2.047-.013 5.461.315 3.517 5.276 2.482 11.865 2 18-2.051 9.802-7.363 17.723-15.562 23.437-8.937 5.756-19.16 5.632-29.438 4.563-7.902-1.998-13.524-7.339-18-14-3.409-6.683-4.488-12.558-4-20 13.449-5.556 13.449-5.556 21-6l-.105 2.457c-.316 12.293-.316 12.293 4.43 23.37 2.516 2.405 4.34 3.16 7.8 3.298 3.623-1.418 4.828-2.836 6.875-6.125 1.867-4.61 2.243-8.48 2.188-13.438l-.02-3.808c-.164-3.672-.584-7.131-1.168-10.754 5.456-.91 10.854-1.167 16.375-1.25"/><path fill="#070324" d="m574.402 749.867 5.202-.003q5.415-.002 10.828.006 6.87.006 13.739-.004 5.36-.005 10.72 0 2.53 0 5.06-.002c36.696-.04 36.696-.04 47.049 5.136v2c-14.466 4.511-28.701 5.31-43.719 5.266l-5.016.005q-5.229.005-10.458-.01c-4.396-.012-8.792-.005-13.188.007-30.887.069-30.887.069-45.025-1.096l-2.637-.21c-5.63-.556-10.669-1.968-15.957-3.962v-3c13.73-5.137 28.945-4.153 43.402-4.133"/><path fill="#431AA5" d="M518 831v33c-11.812 1.875-11.812 1.875-15.464 2.453-5.163.823-10.308 1.685-15.442 2.672-3.975.734-7.727 1.095-11.781 1l-3.075-.055L470 870v-9h1v8c4.764-.795 4.764-.795 8.207-3.781 2.914-8.153.137-17.71-1.55-25.91C477 836 477 836 477 834c4.821-1.607 9.827-1.666 14.875-2.062l3.242-.276 3.25-.26 2.91-.234c5.569-.251 11.148-.168 16.723-.168"/><path fill="#5E24CB" d="M451 757h1v5l2.813-2.5c2.623-2.332 3.618-2.5 7.187-2.5l.547 2.829a8410 8410 0 0 0 11.796 59.899q.93 4.63 1.848 9.26l.549 2.756.968 4.883a346 346 0 0 0 2.382 11.057c1.387 6.207 2.185 12.545-.527 18.441C478 868 478 868 477 869c-2 .04-4 .043-6 0l-.367-2.16-.508-2.903-.492-2.847c-.601-3.154-.601-3.154-1.613-6.43-1.125-4.037-1.818-8.025-2.457-12.16-1.856-11.528-4.163-22.92-6.817-34.293C448.47 764.031 448.47 764.031 451 757"/><path fill="#040B0B" d="M514 356c2 2 2 2 2.063 5.063-1.485 8.207-8.86 13.952-15.145 18.722C499 381 499 381 497 381c-.48 4.944-.46 9.224 1 14 4.122 3.574 8.939 5.182 14 7q3.517 1.36 7.014 2.77 2.268.906 4.562 1.747c2.1.807 2.1.807 5.424 2.483.708 2.105.708 2.105 1 4-6.285-.229-11.677-1.733-17.562-3.812l-2.145-.753c-4.392-1.597-8.488-3.477-12.59-5.72-1.802-.942-1.802-.942-4.266-.215L491 404c-6.752 4-6.752 4-10 4-.246-2.27-.246-2.27 0-5 1.715-1.95 1.715-1.95 3.937-3.687 4.053-3.197 4.053-3.197 5.512-8.036.549-6.915.549-6.915-2.504-12.89-2.585-2.222-5.25-4.302-7.945-6.387-4.079-4.189-5.844-8.185-6.203-14.047C474 356 474 356 475.687 354c10.553-4.563 28.338-3.542 38.313 2"/><path fill="#DC973B" d="M448 282c6.415-.428 11.886 1.143 18 3l-.484 2.543c-1.34 8.982-1.954 19.231 2.484 27.457 1.578 2.27 1.578 2.27 4 3 3.557.325 3.557.325 7-1 4.468-5.124 5.104-11.203 5.563-17.75l.253-3.547L485 293l8 4c-.44 11.17-2.58 22.96-11 31-4.368 2.28-9.138 2.85-14 2-7.733-2.94-13.025-7.664-16.441-15.164-3.071-7.752-4.7-14.102-4.684-22.461l-.008-3.977C447 285 447 285 448 282"/><path fill="#4219A4" d="M472 807c10.383-.148 20.645.298 31 1v1l15 1v19q-6.56.433-13.123.854-2.225.144-4.45.292c-8.151.538-16.253.983-24.427.854q-1.011-4.31-2-8.625l-.578-2.45c-1.001-4.397-1.657-8.38-1.422-12.925"/><path fill="#3B3F46" d="M866 709h105l-2 8H867c-1-2-1-2-1-8"/><path fill="#161E28" d="M742 595h2c1.585 6.938.33 13.356-.75 20.313l-.516 3.494c-.557 3.734-1.141 7.464-1.734 11.193l-.326 2.062c-1.976 12.44-4.336 24.787-6.861 37.126l-.593 2.899c-3.253 15.868-6.954 31.536-11.205 47.167a1721 1721 0 0 0-3.257 12.242l-2.722 10.31q-.731 2.764-1.47 5.526l-.845 3.179C713 753 713 753 712 755h-2c-.149-5.741.318-10.939 1.438-16.562l.51-2.624c3.509-17.527 7.794-34.907 11.87-52.31 2.889-12.35 5.431-24.735 7.787-37.2 1.49-7.852 3.047-15.69 4.615-23.528l.923-4.625c1.543-7.735 3.101-15.461 4.857-23.151"/><path fill="#772EED" d="M45 500a120217 120217 0 0 1 149.097-.22l3.165-.003c16.918-.017 33.835-.049 50.753-.086q26.036-.056 52.07-.067 16.068-.008 32.135-.056 11.016-.03 22.031-.022c4.238.003 8.476-.001 12.714-.023q5.822-.028 11.644-.007 2.104.003 4.208-.016c9.158-.077 15.61.376 22.644 6.719l1.914 2.281 1.96 2.281c2.891 3.854 3.934 6.374 3.665 11.219a61 61 0 0 1-4.125-7.187l-1.07-2.168L407 511l-1 1-2 2v-2l-2 1c-.658 3.03-.658 3.03-1 6l-2.125-2.187c-8.722-8.649-14.954-10.11-26.939-10.132l-3.668-.03q-4.957-.038-9.916-.056c-3.459-.015-6.918-.042-10.378-.068q-9.816-.068-19.634-.116c-7.453-.039-14.906-.088-22.36-.138q-22.99-.154-45.98-.273l1-2h116v-2l-332-1z"/><path fill="#6629D1" d="m526 751-.187 2.375L526 756c3.418 2.278 5.25 2.443 9.3 2.843l1.936.191c2.136.205 4.272.392 6.409.575l2.255.199c18.385 1.582 36.745 1.578 55.184 1.456 3.531-.02 7.062-.023 10.593-.026q6.386-.01 12.772-.035l2.405-.006q3.366-.01 6.73-.036l3.842-.02c3.589-.142 7.028-.588 10.574-1.141q2.964-.204 5.934-.316l3.212-.127 3.292-.12 3.373-.13q4.094-.159 8.189-.307l-1 2c-23.416 5.42-48.11 5.34-72.009 5.26-3.467-.01-6.934-.004-10.4.008-14.39.04-28.718-.235-43.08-1.159l-3.723-.234c-15.742-1.127-15.742-1.127-22.788-4.875-.25-2.812-.25-2.812 0-6 2.458-2.543 3.425-3 7-3"/><path fill="#0E171F" d="M805 629c-2.463 2.463-4.523 2.987-7.812 4.125C782.734 638.581 770.42 647.75 761 660l-1.637 2.094c-8.01 10.8-13.578 23.049-17.363 35.906l-2.25 7.25q-.878 2.874-1.75 5.75h-1c-1.05-22.296 10.169-45.566 25-62 2.625-2.25 2.625-2.25 5-4l2.227-2.32C779.243 633 790.992 626.573 805 629"/><path fill="#062821" d="M817 402c2.465.38 3.725.717 5.489 2.528l1.394 1.98 1.58 2.214 1.662 2.403 1.755 2.495c1.718 2.452 3.42 4.916 5.12 7.38q1.237 1.756 2.477 3.512c11.317 16.28 21.139 33.914 30.523 51.363l1.22 2.228c2.292 4.358 3.37 7.982 3.78 12.897h-3c-1.192-1.474-1.192-1.474-2.348-3.559l-1.318-2.332-1.396-2.546-2.97-5.274-1.507-2.698c-2.116-3.753-4.32-7.452-6.523-11.154a470 470 0 0 1-8.433-14.812 471 471 0 0 0-26.447-42.863C817 404 817 404 817 402"/><path fill="#062720" d="m908 354 2 1c-1.267 12.769-3.1 25.363-5.312 38l-.937 5.408c-1.77 10.188-3.581 20.369-5.501 30.53l-.564 3.021c-1.19 6.146-2.773 12.08-4.686 18.041h-3c-.165-6.208.329-11.647 1.688-17.687 1.814-8.506 3.261-17.037 4.625-25.625 1.772-10.986 3.907-21.838 6.375-32.688l.455-2.014c1.387-6.095 2.808-12.074 4.857-17.986"/><path fill="#062820" d="M956 458h2c-1.482 8.173-8.34 15.542-13.043 22.2-6.06 8.672-12.106 17.38-16.957 26.8h-2l-.738 2.555c-1.402 3.826-3.306 7.13-5.45 10.57q-1.215 1.976-2.425 3.953l-1.218 1.983a197 197 0 0 0-3.212 5.548l-1.832 3.266-1.617 2.93C908 540 908 540 905 541c.396-6.81 3.186-11.93 6.375-17.875l1.628-3.074c4.85-9.024 10.22-17.598 15.997-26.051q1.169-1.738 2.336-3.477c5.266-7.742 10.887-15.16 16.664-22.523l2.34-3.04 2.16-2.772 1.906-2.458z"/><path fill="#32148E" d="M627 746c39.275-.671 39.275-.671 49.719 6.117 2.021 2.97 1.594 6.114 1.468 9.57l-.04 2.127c-.036 1.73-.09 3.458-.147 5.186h-1l-1-9-5 1v-1h-15v-1l11-2v-2c-9.5-2.086-18.71-3.58-28.437-4.125l-3.913-.236c-23.511-1.313-47.109-1.337-70.65-1.639v-1h63z"/><path fill="#1D0D6D" d="M518 831v13c-13.394-1.301-26.69-3.014-40-5l-1-5c4.82-1.607 9.828-1.67 14.875-2.062 1.127-.09 2.254-.18 3.416-.271 7.609-.577 15.078-.86 22.709-.667"/><path fill="#062720" d="M963 569c-1.563 4.25-4.774 6.562-8.187 9.313-7.67 6.337-14.356 13.12-20.813 20.687l-2.5 2.906c-5.877 6.864-11.543 13.868-17.09 21L912 626l-2.191 2.906L908 631h-2c1.279-4.305 2.91-7.753 5.375-11.5l1.879-2.863L915 614l1.277-2.043c.853-1.355 1.78-2.664 2.723-3.957h2l.832-1.792c1.12-2.118 2.293-3.722 3.856-5.528l1.601-1.857 1.711-1.948 1.773-2.022C953.615 569 953.615 569 963 569"/><path fill="#052821" d="M822 542c3.764 1.68 6.968 4.042 10.25 6.5l1.68 1.223c1.396 1.042 2.738 2.154 4.07 3.277v2l1.8.825c2.149 1.148 3.647 2.314 5.415 3.976l1.812 1.693 1.91 1.818 1.984 1.88q2.036 1.936 4.064 3.881a841 841 0 0 0 5.82 5.497q1.755 1.682 3.508 3.367l1.65 1.535c3.762 3.681 5.002 6.515 6.037 11.528l-3 1-1.074-1.293c-7.578-8.899-15.908-17.334-24.828-24.89a187 187 0 0 1-5.04-4.54l-1.591-1.48q-1.545-1.44-3.08-2.891c-2.466-2.293-4.847-4.198-7.7-6.004C823 549 823 549 822.126 545.25z"/><path fill="#0B141C" d="M859 836c2.36 3.541 2.573 4.828 2 9-1.606 2.41-2.943 4.044-5 6l-1.516 1.5c-10.279 8.89-29.252 13.853-42.484 13.5v-3h2v-3l3.734-.918c19.744-4.753 19.744-4.753 36.266-16.082 1.93-3.183 1.93-3.183 3-6z"/><path fill="#1B0D6C" d="M516 810h2v19q-6.56.433-13.123.854-2.225.144-4.45.292c-8.151.538-16.253.983-24.427.854l-1-9c7.465.443 14.842 1.062 22.25 2.063 5.966.8 11.73 1.125 17.75.937z"/><path fill="#1C0D6D" d="M479 842c8.584-.316 16.72.649 25.188 2l3.751.578q4.533.7 9.061 1.422v3c-4.499.676-9 1.34-13.5 2l-3.844.578c-12.328 1.798-12.328 1.798-18.656 1.422-2.352-2.352-1.714-7.776-2-11"/><path fill="#1F1B42" d="m572 683 3 1q.037 7.437.055 14.874.008 2.518.02 5.035c.046 8.863-.004 17.71-.454 26.564l-.093 2.126c-.21 3.576-.605 6.34-2.528 9.401l-3-1c-.117-12.234.124-24.398.8-36.614.14-2.572.271-5.145.401-7.718l.264-4.926.117-2.322c.303-5.305.303-5.305 1.418-6.42"/><path fill="#E6E1D3" d="M388 362c25.171-.41 49.153 2.086 74 6l1-3c1.572 3.143.117 5.365-.937 8.625l-1.153 3.602L460 380h-1c-.125-6.75-.125-6.75 1-9l-2.114-.13c-6.946-.48-13.836-1.18-20.745-2.026l-2.668-.326q-5.48-.674-10.96-1.361C411.68 365.678 399.916 364.525 388 364z"/><path fill="#E3DBCC" d="m459 382 1 6h-2v-5c-23.228 1.722-44.845 6.792-66.859 14.345C389 398 389 398 387 398v-2c22.532-11.227 46.826-17.058 72-14"/><path fill="#7B33F0" d="m672 759-1 2c-2.99.626-5.919 1.131-8.937 1.563l-2.479.38c-2.525.38-5.052.726-7.584 1.057l-2.35.308c-7.377.853-14.731.843-22.15.817l-2.054-.003c-16.49-.025-32.967-.543-49.446-1.122v-1l1.84-.025q9.639-.132 19.278-.292 3.579-.057 7.156-.105c13.192-.177 26.234-.572 39.345-2.101 4.742-.55 9.49-.842 14.256-1.102l2.204-.12c3.978-.201 7.939-.292 11.921-.255"/><path fill="#421AA3" d="M478 839c8.378.429 16.725.991 25.063 1.938l2.087.226c4.555.54 8.348 1.55 12.85 2.836v19h-4c-1.63-4.791-2.206-8.056-1-13l-3-1h7v-3c-1.13.03-2.258.062-3.422.094-4.725 0-9.19-.757-13.828-1.594-7.31-1.248-14.316-1.9-21.75-1.5z"/><path fill="#111311" d="M488 424a490 490 0 0 1 7.137 3.621C505.76 433.056 515.152 436.296 527 438v3c-12.628.447-25.585-.66-36.125-8.25L489 431l4-1-2.5-1.875L488 426z"/><path fill="#ECE6D9" d="M572 382h1l1 6 1.598.531C587.09 392.381 598.179 396.5 609 402l2.275 1.152a912 912 0 0 1 7.1 3.66l2.257 1.168c5.25 2.782 5.25 2.782 6.368 5.02a126 126 0 0 1-11.676-4.39l-3.236-1.393-3.4-1.467c-8.502-3.643-16.993-7.123-25.787-9.999-2.884-.955-4.719-1.569-6.901-3.751l-2.125-1.187C572 389 572 389 571.75 385.313z"/><path fill="#3F434A" d="M943 709h28l-2 8h-19l1-3h2v-3h15l-25-1z"/><path fill="#E2D0B8" d="M555 378h17c1 4 1 4 0 10l-16-3z"/><path fill="#361493" d="M555 747v1l-11 1 3 2-2.738.586-3.574.789-3.551.773c-3.266.709-3.266.709-6.137 2.852l5 2v1c-6.4.37-6.4.37-9.437-1.5L525 756l1-5-2-1c10.559-2.811 20.15-3.355 31-3"/><path fill="#E4D2BB" d="M555 389q2.844.174 5.688.375c1.055.07 2.111.14 3.199.21 3.02.403 5.354 1.156 8.113 2.415l1 7c-3.991 1.587-6.776.37-10.687-1.062l-3.512-1.223C556 395 556 395 555.105 391.816z"/><path fill="#C3A987" d="m749 848 3 1c-.738 3.473-2.03 6.559-3.437 9.813-1.848 4.362-3.415 8.594-4.563 13.187h-5c.694-9.372 3.49-17.129 10-24"/><path fill="#1C0B5E" d="M679 770h5l1 23-5 1c-1-1-1-1-1.114-3.225l.016-2.904.01-3.135.025-3.298.014-3.311q.018-4.064.049-8.127"/><path fill="#2F1286" d="m653.875 746.25 2.297.082c2.195.121 2.195.121 5.828.668 2 3 2 3 2 7-1.02-.2-1.02-.2-2.062-.402-8.636-1.574-17.188-2.176-25.938-2.598l1-4c5.73-.858 11.095-1.085 16.875-.75"/><path fill="#090B09" d="M497 298h1c.225 5.404-.511 9.813-2 14.938l-.578 2.072A654 654 0 0 1 494 320h-2v2h-4c.658-5.268 1.733-10.301 3.063-15.437l.564-2.217q.682-2.675 1.373-5.346l1 2h2z"/><path fill="#DDD2BF" d="M619 664h2l-1 48-3-1a5713 5713 0 0 1-.055-14.886q-.008-2.528-.02-5.054c-.013-2.435-.018-4.87-.023-7.306l-.015-2.246c-.002-13.279-.002-13.279 2.113-17.508"/><path fill="#1C0A5D" d="M679 858h6c-.9 8.288-2.637 16.426-8 23h-2a491 491 0 0 1 2-14.875l.5-3.367C678 860 678 860 679 858"/><path fill="#ECE8DF" d="M587 376c6.998-.209 13.436.549 20.313 1.813l3.056.545c6.958 1.268 13.824 2.71 20.631 4.642v1c-6.479-.389-12.833-1.1-19.243-2.093-11.911-1.84-23.714-2.591-35.757-2.907v-1h11z"/><path fill="#FAF7ED" d="M519 232h1v67h-1c-.793-7.605-1.19-15.15-1.316-22.793l-.063-3.249q-.096-5.072-.183-10.146l-.131-6.931q-.16-8.44-.307-16.881l-4 8c-1-3-1-3 .18-5.664l1.695-2.961 1.68-2.977C518 233 518 233 519 232"/><path fill="#BCA27E" d="M778 851c-.64 4.435-1.702 8.546-3.062 12.813-1.32 3.517-1.32 3.517-1.938 7.187h-6c.994-7.105 2.804-13.096 7-19 2-1 2-1 4-1"/><path fill="#441AA6" d="M518 829v2a29075 29075 0 0 1-21.538 1.718q-3.928.314-7.857.626l-2.471.199c-3.054.24-6.07.457-9.134.457v-3c6.46-.78 12.876-1.273 19.375-1.562l2.78-.13c6.284-.276 12.555-.44 18.845-.308"/><path fill="#35158F" d="M518 844v19h-4c-1.63-4.791-2.206-8.056-1-13l-3-1h7v-3h-8v-1c6.75-1 6.75-1 9-1"/><path fill="#581FC8" d="M518 755h1v5l4 2h-3v40h-1c-1.102-10.096-1.117-20.111-1.062-30.25q.008-2.447.013-4.895.017-5.927.049-11.855"/><path fill="#010609" d="M591 734h1l1 11h-33v-1l2.082-.402 2.73-.535 2.708-.528c2.594-.512 2.594-.512 5.48-1.535 1.993.07 1.993.07 4.23.34l2.432.283 2.525.314 2.561.303q3.127.373 6.252.76z"/><path fill="#7130E3" d="m672 759-1 2c-1.762.502-1.762.502-4.043.852l-2.506.39-2.638.383-2.58.406C647.1 764.871 647.1 764.871 641 762v-1c5.355-.849 10.65-1.287 16.063-1.563l2.353-.13c4.2-.224 8.376-.354 12.584-.307"/><path fill="#706F77" d="M934 669q9.159-.037 18.317-.055 3.117-.008 6.236-.02c2.981-.013 5.962-.018 8.943-.023l2.835-.015h2.608l2.308-.007C977 669 977 669 978 670c.073 2.186.084 4.375.062 6.563l-.027 3.628L978 683h-1v-12a394 394 0 0 0-7.313-.25l-2.091-.102c-2.286-.087-2.286-.087-5.596.352-2.026 1.862-2.026 1.862-3 4l-1-4a585 585 0 0 0-4.375-.062l-2.46-.036c-2.214-.047-2.214-.047-4.165 1.098v-2l-2 .563c-3.893.567-7.114.03-11-.563z"/><path fill="#0A0C0C" d="M488 424c2.968 1.457 5.864 3.012 8.75 4.625l2.422 1.352L501 431v3l3 1v2l2 1c-6.491-.423-11.335-2.911-17-6l4-2-2.5-1.875L488 426z"/><path fill="#5820C7" d="M519 803h1l-1 47h-1v-40h-24v-1h24z"/><path fill="#101312" d="M490 394h2l-1.062 2.188c-1.042 3.124-.829 4.694.062 7.812-6.625 4-6.625 4-10 4-.246-2.27-.246-2.27 0-5 1.715-1.95 1.715-1.95 3.938-3.687 3-2.272 3-2.272 5.062-5.313"/><path fill="#F4EEDD" d="M463 365c1.572 3.143.117 5.365-.937 8.625l-1.153 3.602L460 380h-1c-.125-6.75-.125-6.75 1-9l-2.668-.184-3.52-.253-3.48-.247A66 66 0 0 1 442 369v-1c6.734-1.683 13.249-1.125 20 0z"/><path fill="#606068" d="M952 783c3 2 3 2 3.512 4.383l.176 2.742.199 2.758L956 795l-5 3-1-3-1-2c-1-2-1-2-2-5h3z"/><path fill="#727179" d="M868 725h1v31l2-1v-3l3 2c.188 3.125.188 3.125 0 6l-3 1-2-3-2 1z"/><path fill="#F6F1E1" d="m459 382 1 6h-2v-5l-1.74.184q-3.942.411-7.885.816c-.904.095-1.807.19-2.738.29-4.568.466-9.038.832-13.637.71 2-3 2-3 3.805-3.68 7.661-1.118 15.555-.248 23.195.68"/><path fill="#EEEAE0" d="M409 390c-2.123 2.123-3.269 2.587-6.062 3.508l-2.415.8-2.523.817-2.523.84C389.28 398 389.28 398 387 398v-2q3.155-1.471 6.313-2.937l3.55-1.653c4.717-2.12 7.088-2.42 12.137-1.41"/><path fill="#33148E" d="M516 810h2v19h-8c2-3 2-3 5-4z"/><path fill="#E39F3E" d="M595 290h13v1l-7 1c-.815 4.655-1.434 9.31-2 14-2.864-4.958-3.15-10.41-4-16"/><path fill="#551DC1" d="m535 897 4 2c0 3 0 3-2 6l6 1v1c-3.187.375-3.187.375-7 0-2.14-1.812-3.39-3.658-5-6l1-2 2 1z"/><path fill="#000101" d="M621 677h1q.29 3.468.563 6.938l.316 3.902L623 691l-1 1a74 74 0 0 0-.316 4.473l-.127 2.724-.12 2.866-.13 2.876A2019 2019 0 0 0 621 712h-1q-.037-7.236-.055-14.471a2248 2248 0 0 0-.02-4.927c-.013-2.356-.018-4.711-.023-7.067l-.015-2.238c0-1.766.051-3.532.113-5.297z"/><path fill="#C7AE89" d="m770 859 3 2c.293 2.383.293 2.383.188 5.125l-.083 2.758L773 871h-6q.464-2.438.938-4.875l.527-2.742C769 861 769 861 770 859"/><path fill="#F7F0E1" d="m576.375 374.875 3.46-.008c2.597.11 4.701.368 7.165 1.133v2q-3.625.08-7.25.125l-2.066.05c-3.745.037-6.508-.096-9.684-2.175 2.823-1.412 5.229-1.132 8.375-1.125"/><path fill="#DCCDB8" d="M806 853c3 1 3 1 4.75 3.875C812 860 812 860 811 863l-9 1 2.563-2.125c2.83-2.67 2.83-2.67 2.25-6.187z"/><path fill="#29107B" d="M650 746v4c-3.155.936-5.966 1.106-9.25 1.063l-2.703-.028L636 751l1-4c4.376-.593 8.575-1.138 13-1"/><path fill="#101518" d="M406 360q2.625-.04 5.25-.062l2.953-.036c2.476.087 4.425.468 6.797 1.098h3.625c3.375 0 3.375 0 5.375 1v2l-17-1v-1l-7-1z"/><path fill="#5F6068" d="M860 670h10c-1.255 2.51-2.5 2.871-5 4l2 1v2c-2.843.23-4.461.359-6.875-1.25L859 674z"/><path fill="#F6EEDE" d="M519 232h1v13c-2-2-2-2-3-6l-4 8c-1-3-1-3 .18-5.664l1.695-2.961 1.68-2.977C518 233 518 233 519 232"/><path fill="#6B6A73" d="m946 702 2 3-2 3h13v1h-26v-1l1.934-.148 2.504-.227c.823-.07 1.647-.14 2.496-.21L942 707l1-2h3z"/><path fill="#6A6A72" d="M923 810c2.125.938 2.125.938 4 2l-2 1c.498 3.688 1.1 5.605 4 8l-1 2-9-9 2-1v-2zm4 0 2 1z"/><path fill="#6B6B72" d="m917.625 668.938 2.14.013q2.618.02 5.235.049v1c-1.457.195-2.916.38-4.375.563l-2.46.316C916 671 916 671 914 670v4l-1 2c-2.062.625-2.062.625-4 1 0-2 0-2 1-3l-2-4c3.065-1.533 6.268-1.103 9.625-1.062"/><path fill="#696972" d="M882 791c2 1 2 1 4 3 1.984.714 3.983 1.386 6 2l-1-3h3l1 3-1 2 2 1c-5.76-.606-10.72-2.757-16-5l2-1z"/><path fill="#E6DECC" d="m443.813 365.438 2.957.308L449 366c-2.895 2.895-6.077 2.854-10 3-3.024-.196-6.004-.55-9-1 4.654-3.102 8.345-3.155 13.813-2.562"/><path fill="#511FB9" d="m476 861 1 2h3c-.573 2.867-.861 3.861-3 6-2.625.125-2.625.125-5 0l1-4h2z"/><path fill="#DED0B9" d="M563 370c2.867.573 3.861.861 6 3 1.988.398 3.99.738 6 1v1l-7 1v-2h-11v-2h5z"/><path fill="#5D5D65" d="M882 790c3.154.7 6.09 1.584 9 3l1 3c-3.618-.329-5.557-.627-8.375-3-1.625-2-1.625-2-1.625-3m-3 1h3v2l-5 1 2-1z"/><path fill="#23106A" d="M269 676h1c2.481 8.068 1.545 14.037-1 22h-1z"/><path fill="#060606" d="m572 378 16 1v1l-2.117.148-2.758.227c-.905.07-1.81.14-2.742.21-2.562.21-2.562.21-4.383 2.415l-2 4z"/><path fill="#030505" d="m723 479 2 2-1.375 2.188c-1.658 2.69-1.658 2.69-2.562 5.312-1.254 2.95-2.986 5.077-5.063 7.5.625-3.59 1.582-6.806 2.938-10.187l1.027-2.606C721 481 721 481 723 479"/><path fill="#221076" d="m505 826-2 2 4 2h-12v-4c3.663-.75 6.424-1.238 10 0"/><path fill="#7630E7" d="M672 759c-1 2-1 2-2.703 2.621-2.719.449-5.293.474-8.047.442l-2.984-.028L656 762l-1-2c11.522-1.148 11.522-1.148 17-1"/><path fill="#01020E" d="m661 754 6 1v2c-6.876 2.16-12.785 3.355-20 3v-1l16-2v-2z"/><path fill="#D6CFBE" d="m767 831 2 2h-9v2h-6l-1-3c9.553-1.318 9.553-1.318 14-1"/><path fill="#717078" d="M865 696c3 3 3 3 3.293 5.043L868 707l10 1v1h-12z"/><path fill="#6A6971" d="m905 702 3 4-1 2 4 1h-16v-1l3.313-.437c3.618-.446 3.618-.446 6.687-1.563l-1-2z"/><path fill="#5C5D64" d="m865 689 4 1h3l-1 5-3-1-4 5z"/><path fill="#E49E3E" d="m450 307 1 3 2 .938c2 1.062 2 1.062 2.75 2.875.276 2.415.317 4.758.25 7.187-3.957-4.616-6-7.846-6-14m3 5 1 2z"/><path fill="#070807" d="M628 634c.688 1.563.688 1.563 1 4a161 161 0 0 1-3 7c-.691 2.779-.691 2.779-1 5h-2c1.743-11.706 1.743-11.706 5-16"/><path fill="#EAA541" d="M611 323v3c-1.61 1.57-1.61 1.57-3.75 3.125l-2.11 1.57c-2.086 1.272-3.753 1.864-6.14 2.305l6-6-1-2 3-1v2z"/><path fill="#E2D8C4" d="M798 843c5.011 1.432 6.945 3.984 10 8l-7-2v-2h-2z"/><path fill="#6A6A72" d="m860 673 1.332 1.457c2.122 1.963 3.85 2.162 6.668 2.543v2h-4l-1 5c-2.398-2.398-2.343-3.333-2.625-6.625l-.227-2.477z"/><path fill="#160B63" d="m502 845 15 1v3h-9v-2l-6-1z"/><path fill="#27107A" d="m516 821 2 1v7h-8l2-3h4z"/><path fill="#281077" d="M563 745a532 532 0 0 1 5.875-.125l3.305-.07C575 745 575 745 577 747c-3.13 1.565-6.59 1.54-10 1-2.258-1.516-2.258-1.516-4-3"/><path fill="#5E5E67" d="m966 723 1 9h-3c-2-3-2-3-3-6 3.875-3 3.875-3 5-3"/><path fill="#E6DFCF" d="m594.945 395.559 2.18.878 2.195.872L601 398v2c-2.666.987-3.901 1.028-6.687.25C592 399 592 399 591 396c2-1 2-1 3.945-.441"/><path fill="#DED7C8" d="M414 386v4c-2.915.81-4.461 1.218-7.312.063L405 389c3.125-2.083 5.271-3 9-3"/><path fill="#D28D36" d="m450 283 14 1-1 8c-2-3-2-3-2-5l-2.152-.367-2.785-.508-2.778-.492L451 285z"/><path fill="#DAC9B2" d="M521 435c7.429-.286 7.429-.286 11 2l-1 3h-4v-2h-5z"/><path fill="#AFA79B" d="M587 376h9v1h-6v2h-14v-1h11z"/><path fill="#F7F3E8" d="M728 352h1v15h-1l-1-6-2 1z"/><path fill="#CF8C36" d="M603 289h6v3l-2.875.875c-3.177.893-3.177.893-5.125 3.125v-4l-3-1 5-1z"/><path fill="#C5AD8C" d="m778 851-1 6-4 1-1-3c3.75-4 3.75-4 6-4"/><path fill="#060605" d="M617 383c6.002-.218 11.192.494 17 2-2.732 1.88-3.884 2.017-7.234 1.54-1.16-.303-2.32-.604-3.516-.915l-3.547-.898L617 384z"/><path fill="#E0D7C4" d="m769 832 11 1v3c-1.46-.087-2.918-.195-4.375-.312l-2.46-.176C771 835 771 835 769 832"/><path fill="#5E5E66" d="M949 802h3l1 8-1.875-1.437c-2.032-1.587-2.032-1.587-4.125-2.563z"/><path fill="#2D1081" d="m531 748 5 1c-.75 2.438-.75 2.438-2 5-2.125.813-2.125.813-4 1-1-3-1-3-.062-5.187z"/><path fill="#6B6A72" d="M867 717h8c-1.25 1.5-1.25 1.5-3 3h-4l1 4-2-1z"/><path fill="#6C2ADF" d="M448 697c2.59 2.59 2.374 4.027 2.625 7.625l.227 3.04L451 710l-1-2h-2l-1 2 .219-1.828.281-2.422.281-2.39c.28-2.629.28-2.629.219-6.36"/><path fill="#F3ECE4" d="M524 582c3.596 3.494 6.835 7.111 10 11l-2 2q-2.008-2.682-4-5.375l-2.25-3.023C524 584 524 584 524 582"/><path fill="#131412" d="M509 371c-1.517 4.55-5.169 6.5-9 9 0-3 0-3 1.46-4.605l1.915-1.583 1.898-1.605C507 371 507 371 509 371"/><path fill="#10100E" d="M707 385c0 3 0 3-2.25 5.5-2.185 1.987-4.339 3.803-6.75 5.5 0-3 0-3 1.715-4.79l2.222-1.835 2.215-1.852L706 386z"/><path fill="#E59E3F" d="M462 318c1 3 1 3 1 7 1.417 1.751 1.417 1.751 3 3-2.375-.687-2.375-.687-5-2-1.312-2.625-1.312-2.625-2-5z"/><path fill="#5E5E66" d="M949 814h3l-3 9-2-1c-.125-2.875-.125-2.875 0-6z"/><path fill="#3F189C" d="m668 755 1 3c-3.314 2.21-4.345 2.225-8.187 2.125l-2.731-.055L656 760v-1l12-2z"/><path fill="#6B6B74" d="M876 717h14c-4.18 2.09-4.804 2.166-9 1v2l-5-2z"/><path fill="#030505" d="M680 550h2c-1.78 4.044-4.395 7.46-7 11l-1-3c1.145-2.043 1.145-2.043 2.813-4.187l1.644-2.168z"/><path fill="#F5F0DD" d="M734 843c0 3.606-.817 4.413-3 7.188l-1.687 2.167L728 854l-1-2c4.143-6.429 4.143-6.429 7-9"/><path fill="#13191D" d="M732 840h2c-.312 2.375-.312 2.375-1 5l-3 2v-2l-2-1 4-2z"/><path fill="#DECDB6" d="m491 433 2 1 1 3h-2l1 6h-2c-1.125-6.625-1.125-6.625 0-10"/><path fill="#F3EEE0" d="M409 390c-2.762 2.762-5.207 2.579-9 3l1-3c2.862-1.43 4.934-.6 8 0"/><path fill="#6E29E6" d="m526 751-1 5h-2l-1-2-3 4c.313-2.375.313-2.375 1-5 3-2 3-2 6-2"/><path fill="#6F2BE0" d="M53 501v2l3 1H42v-1q2.187-.504 4.375-1l2.46-.562C51 501 51 501 53 501"/><path fill="#000404" d="M720 866h1l1 7 3 1-1 3-3-1c-1.607-3.215-1.057-6.436-1-10"/><path fill="#6325D6" d="m218 686 1 2h-2l-1 5-3-3 1-3c2.063-.687 2.063-.687 4-1"/><path fill="#5F28C6" d="M648 760c4.824-.193 8.496.243 13 2v1h-8v-2h-5z"/><path fill="#32148C" d="M527 749h6c-2.625 3.875-2.625 3.875-6 5z"/><path fill="#6225CD" d="M440 653c1.125 3.75 1.125 3.75 0 6l-4-2 1-3z"/><path fill="#E4DED0" d="m400 390 1 4-5 1-1-3z"/><path fill="#1B1C1D" d="m421 388-1 3h-7c1-2 1-2 2.875-2.625C418 388 418 388 421 388"/><path fill="#F2EBDC" d="M418 385v2l3 1-7 1v-3c2-1 2-1 4-1"/><path fill="#F3EAD6" d="M726 361c.625 1.875.625 1.875 1 4l-2 2-3-1c1.75-3.875 1.75-3.875 4-5"/><path fill="#E29C3E" d="m579 328 3 2-5 1 1 3-3-1c.313-1.937.313-1.937 1-4z"/><path fill="#3B3F46" stroke="null" d="M481.557 99.44c-2.987 4.124-4.606 8.426-5.944 13.437l-.578 2.115c-4.98 18.734-6.445 38.025-7.065 57.447l-.117 3.387a176.4 176.4 0 0 0 3.74 39.238l.456 2.171c1.115 4.939 1.115 4.939 3.168 7.204l1.337-1.433c8.726-8.985 18.916-15.508 29.46-21.567-.446-4.308-1.515-6.069-4.415-8.937-3.074-3.049-4.749-5.9-6.454-10.063 6.992 2.23 13.687 4.745 20.328 8.047 2.317.953 2.317.953 5.94.953-.437-4.84-2.586-8.029-5.151-11.812l-1.237-1.87c-2.617-3.947-5.287-7.848-8.052-11.67-1.079-1.854-1.485-3.495-1.864-5.648 10.79 4.736 19.852 12.24 28.986 20l.906-2a101 101 0 0 0-3-7.125l-.994-2.157c-3.688-7.865-7.925-15.31-12.31-22.718l-1.141-1.934c-16.69-28.226-16.69-28.226-25.129-38.066h-1.811l-.906-3c-4.762-4-4.762-4-8.153-4z"/></svg>